# xmcd
#
# Track frame offsets:
#	150
#	16974
#	32972
#	50680
#	64480
#	79788
#	94253
#	108377
#	122857
#	131879
#	149636
#	170022
#	185975
#
# Disc length: 2725
#
# Revision: 1
# Processed by: cddbd v1.5.1PL0 Copyright (c) Steve Scherf et al.
# Submitted via: VisiTrax 2.9.5.180 - For more info visit www.synapsa.com
# Normalized: r0:DSETVAR1
#
DISCID=cf0aa30d
DTITLE=Various Artist - CDX 196A September 1998
DYEAR=1998
DGENRE=
TTITLE0=Deryl Dodd - A bitter end
TTITLE1=Deana Carter - Absebce of the heart
TTITLE2=Chris LeDoux/Bon Jovi - Bang a drum
TTITLE3=Michael Peterson - By the book
TTITLE4=Don Williams - Cracker Jack Diamond
TTITLE5=Springer - Don't try to find me
TTITLE6=Charlie Daniels Band - Fais do do
TTITLE7=Brooks and Dunn - Husbands and wives
TTITLE8=Hank Williams/Anita Carter - I can't help it (if I'm still in love with you)
TTITLE9=Jeff Dugan - No fair falling in love
TTITLE10=Elton John - Stand by your man
TTITLE11=Faith Hill - *Til I can make on my own
TTITLE12=Trisha Yearwood - Till I get it right
EXTD=
EXTT0=
EXTT1=
EXTT2=
EXTT3=
EXTT4=
EXTT5=
EXTT6=
EXTT7=
EXTT8=
EXTT9=
EXTT10=
EXTT11=
EXTT12=
PLAYORDER=
